<?xml version="1.0" encoding="UTF-8"?>
<svg xmlns="http://www.w3.org/2000/svg" xmlns:xlink="http://www.w3.org/1999/xlink" width="250pt" height="250pt" viewBox="0 0 250 250" version="1.1">
<g id="surface1">
<path style=" stroke:none;fill-rule:nonzero;fill:rgb(85.098039%,65.882353%,15.686275%);fill-opacity:1;" d="M 41.5625 0 L 208.4375 0 C 231.390625 0 250 18.609375 250 41.5625 L 250 208.4375 C 250 231.390625 231.390625 250 208.4375 250 L 41.5625 250 C 18.609375 250 0 231.390625 0 208.4375 L 0 41.5625 C 0 18.609375 18.609375 0 41.5625 0 Z M 41.5625 0 "/>
<path style="fill-rule:nonzero;fill:rgb(13.72549%,12.156863%,12.54902%);fill-opacity:1;stroke-width:0.25;stroke-linecap:butt;stroke-linejoin:miter;stroke:rgb(13.72549%,12.156863%,12.54902%);stroke-opacity:1;stroke-miterlimit:10;" d="M 293.939845 434.920041 C 296.210508 435.920034 298.129669 435.920034 300.439805 436.649353 C 300.881531 436.735819 301.283784 436.959502 301.590173 437.290327 C 302.15032 438.04972 301.840172 440.130534 301.759345 441.040303 C 301.629647 442.510219 301.759345 442.829766 300.249956 443.149312 C 299.830786 443.230139 299.300714 443.309086 299.110866 443.690662 C 300.353339 443.617355 301.599572 443.632392 302.840166 443.739534 C 303.729258 443.829759 304.74053 443.739534 305.610825 443.739534 C 305.94165 443.790286 306.278114 443.790286 306.610819 443.739534 C 306.890892 443.607956 307.165327 443.461341 307.430362 443.299687 C 306.539391 443.299687 304.599553 443.089162 303.999933 442.299694 C 303.793167 442.010222 303.693544 441.654961 303.719859 441.2997 C 303.590161 437.4501 306.419091 435.839208 309.289373 434.170045 C 315.569409 430.529091 320.890805 426.570469 320.180283 418.290445 C 319.920886 415.290464 318.779916 415.290464 318.469767 413.790473 C 318.189694 412.410783 318.240445 410.299894 319.330664 409.23975 C 320.01675 409.794258 321.016744 409.71907 321.612605 409.068698 C 322.208466 408.416447 322.193428 407.414573 321.58065 406.779239 L 324.099431 406.130747 C 323.561841 405.766087 323.003573 405.433383 322.430269 405.130753 C 322.809966 403.709709 322.009219 403.070616 320.699077 402.760467 C 321.298697 401.912728 321.106969 400.741683 320.270508 400.130784 C 319.729158 399.839433 319.090064 399.7962 318.516759 400.010484 C 317.941575 400.224769 317.48857 400.675894 317.270527 401.249198 C 314.749866 400.850705 312.449128 406.200295 311.590111 408.170208 C 310.729214 410.14012 310.669064 412.24913 308.59013 413.890097 C 304.219856 417.369398 298.479291 419.130666 292.59023 415.130691 C 290.819564 413.920172 290.770692 411.829959 289.990622 409.640123 C 289.530098 408.369455 285.599672 405.179625 283.990659 406.540519 C 283.392919 407.168334 283.26698 408.108178 283.680511 408.869452 C 284.319605 410.095008 285.048923 411.271692 285.859069 412.390106 C 284.740655 411.820561 283.080891 410.32057 282.909839 411.489736 C 282.896681 412.690856 283.453069 413.824308 284.40983 414.549867 C 285.197419 415.412644 285.91358 416.33933 286.550794 417.320527 C 285.953053 417.125039 285.321478 417.066769 284.699302 417.149475 C 284.058328 417.318647 283.633519 417.929545 283.699308 418.589316 C 283.830886 419.209612 285.150427 418.470895 285.159825 419.100591 C 285.169223 419.730286 284.030133 419.480287 283.930509 419.820511 C 283.590286 420.97088 286.539516 422.249067 287.159812 423.359962 C 287.569584 424.100559 284.639152 421.600575 284.319605 421.970873 C 284.000058 422.339292 284.319605 424.45958 286.419216 425.970848 C 287.144775 426.393778 287.815823 426.905053 288.419203 427.489636 C 289.419197 428.709553 290.599641 433.410652 293.939845 434.920041 Z M 293.939845 434.920041 " transform="matrix(2.078138,0,0,2.078138,-509.413965,-692.331671)"/>
<path style=" stroke:none;fill-rule:nonzero;fill:rgb(13.72549%,12.156863%,12.54902%);fill-opacity:1;" d="M 195.636719 50.476562 L 186.761719 63.09375 C 169.636719 45.292969 146 35.230469 121.300781 35.230469 C 96.601562 35.230469 72.964844 45.292969 55.839844 63.09375 L 46.988281 50.476562 C 88.21875 9.972656 154.300781 9.972656 195.53125 50.476562 Z M 195.636719 50.476562 "/>
<path style=" stroke:none;fill-rule:nonzero;fill:rgb(13.72549%,12.156863%,12.54902%);fill-opacity:1;" d="M 177.929688 75.769531 L 168.910156 88.632812 C 157.421875 74.082031 139.902344 65.589844 121.363281 65.589844 C 102.824219 65.589844 85.304688 74.082031 73.816406 88.632812 L 64.796875 75.769531 C 79.167969 59.628906 99.75 50.398438 121.363281 50.398438 C 142.976562 50.398438 163.558594 59.628906 177.929688 75.769531 Z M 177.929688 75.769531 "/>
<path style=" stroke:none;fill-rule:nonzero;fill:rgb(13.72549%,12.156863%,12.54902%);fill-opacity:1;" d="M 149.832031 115.878906 C 145.519531 103.871094 134.144531 95.851562 121.386719 95.824219 C 108.628906 95.796875 97.21875 103.765625 92.851562 115.753906 L 82.980469 101.664062 C 91.324219 88.535156 105.800781 80.585938 121.351562 80.585938 C 136.90625 80.585938 151.382812 88.535156 159.726562 101.664062 Z M 149.832031 115.878906 "/>
</g>
</svg>
